<svg width="263" height="92" viewBox="0 0 263 92" fill="none" xmlns="http://www.w3.org/2000/svg">
<rect y="21" width="263" height="71" rx="35.5" fill="#FFCA58"/>
<path d="M82.32 42.52L77.616 47.8C76.464 49.08 75.344 50.36 74.256 51.64C73.168 52.856 72.24 53.944 71.472 54.904C72.816 56.12 74.192 57.336 75.6 58.552C77.072 59.704 78.608 60.92 80.208 62.2C82.256 63.8 83.568 65.08 84.144 66.04C84.72 66.936 85.008 67.512 85.008 67.768C85.008 68.28 84.688 68.696 84.048 69.016C83.472 69.272 82.736 69.464 81.84 69.592C80.944 69.72 79.984 69.88 78.96 70.072C78 70.2 77.168 70.392 76.464 70.648C76.208 70.584 75.856 70.488 75.408 70.36C75.024 70.168 74.64 69.976 74.256 69.784C73.872 69.592 73.52 69.4 73.2 69.208C72.944 68.952 72.816 68.696 72.816 68.44C72.176 67.736 71.6 67.128 71.088 66.616C70.64 66.104 70.192 65.592 69.744 65.08C69.296 64.504 68.784 63.928 68.208 63.352C67.632 62.776 66.96 62.072 66.192 61.24C65.168 62.2 64.336 63.032 63.696 63.736C63.056 64.376 62.48 64.952 61.968 65.464C61.712 65.72 61.36 66.072 60.912 66.52C60.464 66.904 60.048 67.352 59.664 67.864C59.28 68.312 58.896 68.76 58.512 69.208C58.192 69.656 58.032 70.04 58.032 70.36L56.304 71.224C56.112 71.352 55.888 71.48 55.632 71.608C55.376 71.736 55.056 71.864 54.672 71.992C53.968 71.8 53.104 71.64 52.08 71.512C51.12 71.384 50.192 71.224 49.296 71.032C48.4 70.84 47.632 70.648 46.992 70.456C46.352 70.264 46.032 69.976 46.032 69.592C46.032 69.272 46.256 68.888 46.704 68.44C47.152 67.928 48.144 67.16 49.68 66.136L53.232 63.64C54.192 62.808 55.024 62.04 55.728 61.336C56.496 60.568 57.2 59.864 57.84 59.224L61.104 55.384C60.272 54.616 59.024 53.464 57.36 51.928C55.76 50.392 54.16 48.856 52.56 47.32C51.024 45.72 49.648 44.344 48.432 43.192C47.28 42.04 46.704 41.496 46.704 41.56C46.896 41.752 47.056 41.848 47.184 41.848C47.568 41.848 47.984 41.656 48.432 41.272C48.944 40.824 49.424 40.344 49.872 39.832C50.384 39.256 50.832 38.744 51.216 38.296C51.664 37.848 52.016 37.56 52.272 37.432L66.384 49.72L78.096 40.504C78.288 40.632 78.544 40.824 78.864 41.08C79.184 41.272 79.536 41.496 79.92 41.752C80.304 41.944 80.688 42.136 81.072 42.328C81.456 42.52 81.776 42.616 82.032 42.616C82.224 42.616 82.32 42.584 82.32 42.52Z" fill="#CA2D2D"/>
</svg>
