<svg width="297" height="80" viewBox="0 0 297 80" fill="none" xmlns="http://www.w3.org/2000/svg">
<rect y="4" width="297" height="71" rx="35.5" fill="#FFCA58"/>
<path d="M37.9643 45.256L38.0923 43.016L33.6123 41.608L30.6042 39.88C29.9216 38.856 29.3456 37.768 28.8763 36.616C28.4069 35.464 28.1723 34.312 28.1723 33.16C28.1723 32.7333 28.2789 32.2427 28.4923 31.688L30.4123 28.36C31.1376 27.976 31.7776 27.6347 32.3323 27.336C32.9296 27.0373 33.4843 26.7813 33.9963 26.568C34.5509 26.3547 35.1056 26.184 35.6603 26.056C36.2576 25.8853 36.9829 25.7147 37.8363 25.544L37.7723 23.112L38.0283 20.936L39.1803 20.232L41.9323 20.616L44.3643 20.36L45.4523 21.512L45.2603 24.2H51.5963L52.8763 25.8L52.1723 29.768L50.2523 29.832L45.3243 30.536V38.344L47.6923 39.176C48.3323 39.6453 48.9509 40.0507 49.5483 40.392C50.1456 40.6907 50.7003 41.0107 51.2123 41.352C51.7243 41.6507 52.2363 41.992 52.7483 42.376C53.2603 42.76 53.7509 43.2293 54.2203 43.784L54.7963 47.944C54.7963 49.096 54.5189 50.0987 53.9643 50.952C53.4096 51.7627 52.6843 52.4453 51.7883 53C50.8923 53.512 49.8683 53.9173 48.7163 54.216C47.5643 54.5147 46.4336 54.728 45.3243 54.856V59.272L44.7483 60.808H38.6683L38.4763 58.888L38.1562 56.328L30.7323 57.48H29.3883V51.912L30.7323 51.464H31.7563L34.5083 51.08L35.9163 51.208L37.0683 50.44L37.9643 50.824V45.256ZM49.1003 46.664L47.6283 45.512L45.4523 44.872L45.2603 48.264L48.0763 48.072L48.9723 47.624L49.1003 46.664ZM37.6443 36.872L38.4123 34.888V33.864L37.7723 31.816C37.4309 32.1573 37.0469 32.4347 36.6203 32.648C36.1936 32.8187 35.8096 32.9893 35.4683 33.16C35.1269 33.3307 34.8283 33.5013 34.5723 33.672C34.3589 33.8 34.2523 33.992 34.2523 34.248C34.2523 34.8453 34.5936 35.3147 35.2763 35.656C35.9589 35.9973 36.7483 36.4027 37.6443 36.872Z" fill="black"/>
</svg>
